<?xml version="1.0" standalone="no"?>
<!DOCTYPE svg PUBLIC "-//W3C//DTD SVG 20010904//EN"
 "http://www.w3.org/TR/2001/REC-SVG-20010904/DTD/svg10.dtd">
<svg version="1.0" xmlns="http://www.w3.org/2000/svg"
 width="274.000000pt" height="274.000000pt" viewBox="0 0 274.000000 274.000000"
 preserveAspectRatio="xMidYMid meet">
<metadata>
Created by potrace 1.14, written by Peter Selinger 2001-2017
</metadata>
<g transform="translate(0.000000,274.000000) scale(0.100000,-0.100000)"
fill="#000000" stroke="none">
<path d="M401 2689 c-172 -34 -318 -182 -351 -358 -14 -73 -14 -1849 0 -1922
34 -180 179 -325 359 -359 73 -14 1849 -14 1922 0 180 34 325 179 359 359 14
73 14 1849 0 1922 -34 180 -179 325 -359 359 -66 12 -1866 12 -1930 -1z m659
-523 l0 -104 -57 -7 c-123 -15 -127 -23 -133 -300 -5 -215 -6 -221 -32 -276
-17 -33 -42 -66 -64 -81 l-36 -26 36 -27 c20 -15 48 -52 63 -83 27 -56 28 -62
33 -277 6 -277 10 -285 133 -299 l57 -7 0 -105 0 -104 -47 0 c-140 1 -256 37
-316 98 -65 67 -70 90 -77 352 -5 197 -9 240 -23 268 -21 39 -71 72 -109 72
l-28 0 0 110 0 110 28 0 c38 0 88 33 109 72 15 28 18 70 23 268 6 262 11 285
77 352 60 62 160 94 301 97 l62 1 0 -104z m789 93 c87 -14 151 -43 194 -87 66
-67 71 -90 77 -352 5 -198 8 -240 23 -268 21 -39 71 -72 110 -72 l27 0 0 -110
0 -110 -27 0 c-39 0 -89 -33 -110 -72 -14 -28 -18 -71 -23 -268 -7 -262 -12
-285 -77 -352 -60 -61 -176 -97 -315 -98 l-48 0 0 104 0 105 58 7 c122 14 126
22 132 299 5 215 6 221 33 277 15 31 43 68 63 83 l36 27 -36 26 c-22 15 -47
48 -64 81 -26 55 -27 61 -32 276 -6 277 -10 285 -132 300 l-58 7 0 104 0 104
53 0 c28 0 81 -5 116 -11z"/>
</g>
</svg>
